HIERARCHY
ROOT joint_Root
{
  OFFSET 0.0 0.0 0.0
  CHANNELS 6 Xposition Yposition Zposition Zrotation Xrotation Yrotation
  JOINT Hips
  {
    OFFSET 0.0 0.0 0.0
    CHANNELS 6 Xposition Yposition Zposition Zrotation Xrotation Yrotation
    JOINT Spine
    {
      OFFSET 15.735699654 0.0 0.0
      CHANNELS 6 Xposition Yposition Zposition Zrotation Xrotation Yrotation
      JOINT Chest
      {
        OFFSET 8.984550476 -0.406206995 0.0
        CHANNELS 6 Xposition Yposition Zposition Zrotation Xrotation Yrotation
        JOINT Neck
        {
          OFFSET 16.377300262 0.0 0.0
          CHANNELS 6 Xposition Yposition Zposition Zrotation Xrotation Yrotation
          JOINT Head
          {
            OFFSET 6.456719875 0.0 0.0
            CHANNELS 6 Xposition Yposition Zposition Zrotation Xrotation Yrotation
            End Site
            {
              OFFSET 0.0 0.0 0.0
            }
          }
        }
        JOINT Shoulder_L
        {
          OFFSET 12.994199753 -0.242715999 4.980390072
          CHANNELS 6 Xposition Yposition Zposition Zrotation Xrotation Yrotation
          JOINT UpperArm_L
          {
            OFFSET 5.348090172 0.0 0.0
            CHANNELS 6 Xposition Yposition Zposition Zrotation Xrotation Yrotation
            JOINT LowerArm_L
            {
              OFFSET 24.32859993 1.8701e-05 0.0
              CHANNELS 6 Xposition Yposition Zposition Zrotation Xrotation Yrotation
              JOINT Hand_L
              {
                OFFSET 22.291599274 0.0 0.0
                CHANNELS 6 Xposition Yposition Zposition Zrotation Xrotation Yrotation
                End Site
                {
                  OFFSET 0.0 0.0 0.0
                }
              }
            }
          }
        }
        JOINT Shoulder_R
        {
          OFFSET 12.99450016 -0.242715999 -4.980390072
          CHANNELS 6 Xposition Yposition Zposition Zrotation Xrotation Yrotation
          JOINT UpperArm_R
          {
            OFFSET -5.348130226 0.0 0.0
            CHANNELS 6 Xposition Yposition Zposition Zrotation Xrotation Yrotation
            JOINT LowerArm_R
            {
              OFFSET -24.328899384 0.000322201 0.0
              CHANNELS 6 Xposition Yposition Zposition Zrotation Xrotation Yrotation
              JOINT Hand_R
              {
                OFFSET -22.291500092 -0.000108084 0.0
                CHANNELS 6 Xposition Yposition Zposition Zrotation Xrotation Yrotation
                End Site
                {
                  OFFSET 0.0 0.0 0.0
                }
              }
            }
          }
        }
      }
    }
    JOINT UpperLeg_L
    {
      OFFSET -2.192480087 -6.469439983 0.0
      CHANNELS 6 Xposition Yposition Zposition Zrotation Xrotation Yrotation
      JOINT LowerLeg_L
      {
        OFFSET 39.081100464 0.0 -1.2379e-05
        CHANNELS 6 Xposition Yposition Zposition Zrotation Xrotation Yrotation
        JOINT Foot_L
        {
          OFFSET 40.985401154 0.0 -1.2687e-05
          CHANNELS 6 Xposition Yposition Zposition Zrotation Xrotation Yrotation
          JOINT Toes_L
          {
            OFFSET 11.754300117 0.0 0.0
            CHANNELS 6 Xposition Yposition Zposition Zrotation Xrotation Yrotation
            End Site
            {
              OFFSET 0.0 0.0 0.0
            }
          }
        }
      }
    }
    JOINT UpperLeg_R
    {
      OFFSET -2.19250989 6.469439983 0.0
      CHANNELS 6 Xposition Yposition Zposition Zrotation Xrotation Yrotation
      JOINT LowerLeg_R
      {
        OFFSET -39.081100464 -0.00228153 -0.040192802
        CHANNELS 6 Xposition Yposition Zposition Zrotation Xrotation Yrotation
        JOINT Foot_R
        {
          OFFSET -40.985401154 0.0 0.0
          CHANNELS 6 Xposition Yposition Zposition Zrotation Xrotation Yrotation
          JOINT Toes_R
          {
            OFFSET -11.754300117 0.0 0.0
            CHANNELS 6 Xposition Yposition Zposition Zrotation Xrotation Yrotation
            End Site
            {
              OFFSET 0.0 0.0 0.0
            }
          }
        }
      }
    }
  }
}
MOTION
Frames: 7
Frame Time: 0.0333333
0.0 0.0 0.0 -0.0 0.0 -0.0 0.0 0.0 0.0 89.739700317 2.761776686 1.240296125 15.735699654 0.0 0.0 90.669692993 88.210639954 -90.767059326 8.984550476 -0.406206995 0.0 -0.530797064 1.526159525 0.586758733 16.377300262 0.0 0.0 -1.245313883 -2.279582024 0.018958064 6.456719875 0.0 0.0 2.133601904 -6.755477428 0.47788471 12.994199753 -0.242715999 4.980390072 -89.929374695 8.120424271 -98.572952271 5.348090172 0.0 0.0 -56.980758667 0.713018 10.362187386 24.32859993 1.8701e-05 0.0 -7.937601089 12.951348305 -2.275566339 22.291599274 0.0 0.0 14.25558567 4.987596035 -1.474243999 12.99450016 -0.242715999 -4.980390072 95.348388672 10.585652351 -102.048904419 -5.348130226 0.0 0.0 -49.080982208 -2.79633379 1.204395175 -24.328899384 0.000322201 0.0 -10.079238892 9.049418449 -8.316654205 -22.291500092 -0.000108084 0.0 19.878482819 6.145711899 -3.301079988 -2.192480087 -6.469439983 0.0 -166.055786133 -6.920850754 -14.70947361 39.081100464 0.0 -1.2379e-05 -14.799075127 -1.320265174 61.396980286 40.985401154 0.0 -1.2687e-05 -4.616084576 5.571553707 -60.464134216 11.754300117 0.0 0.0 0.155026615 -0.558396459 -20.91822052 -2.19250989 6.469439983 0.0 177.233276367 7.531779289 176.900436401 -39.081100464 -0.00228153 -0.040192802 -13.657889366 1.127088308 17.42873764 -40.985401154 0.0 0.0 -0.262897998 1.624456644 -66.807670593 -11.754300117 0.0 0.0 0.14379847 -0.688160896 -20.366476059 
0.0 0.0 0.0 -0.0 0.0 -0.0 0.0 0.0 0.0 90.074172974 2.938309908 2.839061975 15.735699654 0.0 0.0 124.410598755 86.856704712 -124.820892334 8.984550476 -0.406206995 0.0 0.948097944 3.160104275 0.014114227 16.377300262 0.0 0.0 -1.631753683 -1.975732088 0.078517795 6.456719875 0.0 0.0 1.937565446 -6.462232113 -0.545298934 12.994199753 -0.242715999 4.980390072 -89.477775574 7.423816204 -97.115791321 5.348090172 0.0 0.0 -57.215858459 5.428420544 11.134803772 24.32859993 1.8701e-05 0.0 -8.827157021 11.575795174 -5.020241261 22.291599274 0.0 0.0 12.343695641 5.178247929 -2.43386507 12.99450016 -0.242715999 -4.980390072 94.234672546 9.866103172 -101.374092102 -5.348130226 0.0 0.0 -49.056797028 0.54071939 -1.663684368 -24.328899384 0.000322201 0.0 -9.76224041 11.301721573 -10.205353737 -22.291500092 -0.000108084 0.0 13.781990051 5.120141506 -2.261156797 -2.192480087 -6.469439983 0.0 -165.708251953 -7.745830059 -19.215770721 39.081100464 0.0 -1.2379e-05 -15.014532089 -1.490289927 61.744625092 40.985401154 0.0 -1.2687e-05 -6.519267082 6.429344654 -59.537216187 11.754300117 0.0 0.0 0.088280037 -0.516634285 -20.423662186 -2.19250989 6.469439983 0.0 174.248626709 8.372008324 179.393875122 -39.081100464 -0.00228153 -0.040192802 -15.348198891 1.365370035 17.189792633 -40.985401154 0.0 0.0 -2.33485961 5.839891434 -67.570152283 -11.754300117 0.0 0.0 0.077612221 -0.652821779 -19.901174545 
0.0 0.0 0.0 -0.0 0.0 -0.0 0.0 0.0 0.0 90.132759094 1.357140064 2.857734919 15.735699654 0.0 0.0 137.174789429 85.386749268 -137.53527832 8.984550476 -0.406206995 0.0 1.796087742 4.889407158 -0.304616868 16.377300262 0.0 0.0 -1.775563121 -1.448047638 0.164520904 6.456719875 0.0 0.0 1.874476552 -5.849168777 -0.832054675 12.994199753 -0.242715999 4.980390072 -88.932067871 7.59423542 -96.118423462 5.348090172 0.0 0.0 -57.42508316 7.442846298 12.069677353 24.32859993 1.8701e-05 0.0 -7.804945946 11.420032501 -7.634266376 22.291599274 0.0 0.0 11.652712822 5.559479713 -3.475565434 12.99450016 -0.242715999 -4.980390072 93.176559448 9.443604469 -100.938110352 -5.348130226 0.0 0.0 -48.150840759 3.604127407 -2.877506971 -24.328899384 0.000322201 0.0 -8.855621338 12.517240524 -12.951292038 -22.291500092 -0.000108084 0.0 13.078246117 5.374794483 -3.336188316 -2.192480087 -6.469439983 0.0 -169.213668823 -6.880934715 -25.736654282 39.081100464 0.0 -1.2379e-05 -12.142949104 -1.25933814 59.63615799 40.985401154 0.0 -1.2687e-05 -5.786562443 4.061019421 -55.120803833 11.754300117 0.0 0.0 0.079069957 -0.508888423 -20.326013565 -2.19250989 6.469439983 0.0 174.073867798 8.539615631 -176.418655396 -39.081100464 -0.00228153 -0.040192802 -13.802966118 1.630932808 14.441207886 -40.985401154 0.0 0.0 -2.150176525 6.494899273 -72.761383057 -11.754300117 0.0 0.0 0.047382683 -0.764361084 -20.018856049 
0.0 0.0 0.0 -0.0 0.0 -0.0 0.0 0.0 0.0 89.979728699 -0.963032246 2.41349268 15.735699654 0.0 0.0 145.682662964 84.643165588 -146.037628174 8.984550476 -0.406206995 0.0 1.575307131 6.055766106 -0.353614032 16.377300262 0.0 0.0 -1.503953934 -0.596196651 0.3267169 6.456719875 0.0 0.0 2.110463619 -4.075172424 -0.371508956 12.994199753 -0.242715999 4.980390072 -88.095809937 7.136095047 -94.216629028 5.348090172 0.0 0.0 -59.301937103 6.475424767 14.462900162 24.32859993 1.8701e-05 0.0 -6.751882553 10.296441078 -10.253403664 22.291599274 0.0 0.0 12.337896347 6.2132411 -4.312496662 12.99450016 -0.242715999 -4.980390072 91.751815796 8.325392723 -100.212356567 -5.348130226 0.0 0.0 -48.344070435 5.51884079 -3.082350492 -24.328899384 0.000322201 0.0 -7.199213505 11.699573517 -17.441932678 -22.291500092 -0.000108084 0.0 12.717768669 5.78459549 -4.260714531 -2.192480087 -6.469439983 0.0 -172.604660034 -5.521948814 -28.878080368 39.081100464 0.0 -1.2379e-05 -9.880198479 -0.934721947 50.365802765 40.985401154 0.0 -1.2687e-05 -4.418110847 2.852276802 -51.112556458 11.754300117 0.0 0.0 0.073136106 -0.480578959 -20.354923248 -2.19250989 6.469439983 0.0 174.967025757 8.864323616 -174.295227051 -39.081100464 -0.00228153 -0.040192802 -11.30163002 1.303034782 14.629114151 -40.985401154 0.0 0.0 -1.076197267 4.254160404 -75.352149963 -11.754300117 0.0 0.0 0.023665238 -0.841856658 -20.061988831 
0.0 0.0 0.0 -0.0 0.0 -0.0 0.0 0.0 0.0 89.832931519 -2.238754034 1.693842888 15.735699654 0.0 0.0 145.122116089 83.415130615 -145.61555481 8.984550476 -0.406206995 0.0 1.527486086 7.101211071 0.08464694 16.377300262 0.0 0.0 -1.511147499 -0.267003745 0.757893562 6.456719875 0.0 0.0 2.298182964 -3.831708431 -0.039831378 12.994199753 -0.242715999 4.980390072 -86.74495697 5.248421192 -93.936828613 5.348090172 0.0 0.0 -61.915119171 1.83175385 17.266178131 24.32859993 1.8701e-05 0.0 -4.299972057 11.693410873 -13.88458252 22.291599274 0.0 0.0 12.587547302 6.948085308 -2.992429018 12.99450016 -0.242715999 -4.980390072 89.427970886 6.223832607 -99.677391052 -5.348130226 0.0 0.0 -50.960262299 3.574224472 -1.397554874 -24.328899384 0.000322201 0.0 -5.232933044 11.021009445 -21.941160202 -22.291500092 -0.000108084 0.0 14.771315575 6.255761147 -4.950146675 -2.192480087 -6.469439983 0.0 -175.876403809 -4.857210159 -31.15136528 39.081100464 0.0 -1.2379e-05 -6.816411972 -0.569822729 37.967227936 40.985401154 0.0 -1.2687e-05 -2.002591372 0.747361064 -44.398532867 11.754300117 0.0 0.0 0.147103786 -0.439321518 -20.644964218 -2.19250989 6.469439983 0.0 178.436676025 9.613334656 -173.358703613 -39.081100464 -0.00228153 -0.040192802 -8.442077637 0.72400564 14.471188545 -40.985401154 0.0 0.0 1.374903202 -0.610740542 -75.010620117 -11.754300117 0.0 0.0 0.065047778 -0.823437572 -20.334709167 
0.0 0.0 0.0 -0.0 0.0 -0.0 0.0 0.0 0.0 89.68787384 -3.754747152 0.912857473 15.735699654 0.0 0.0 141.836959839 82.648223877 -143.046081543 8.984550476 -0.406206995 0.0 0.914273322 7.421890259 -0.043401849 16.377300262 0.0 0.0 -2.056844473 -0.122509465 1.543410182 6.456719875 0.0 0.0 2.592146158 -3.619676828 0.107614219 12.994199753 -0.242715999 4.980390072 -85.772460938 3.778410435 -93.147949219 5.348090172 0.0 0.0 -62.678653717 -3.731809139 20.007539749 24.32859993 1.8701e-05 0.0 -2.326502323 12.690654755 -16.506942749 22.291599274 0.0 0.0 14.485021591 7.190999031 -2.293943167 12.99450016 -0.242715999 -4.980390072 87.657745361 5.295945168 -100.185829163 -5.348130226 0.0 0.0 -55.022598267 0.536267221 -0.118502848 -24.328899384 0.000322201 0.0 -3.319899797 9.707448006 -25.90407753 -22.291500092 -0.000108084 0.0 17.283069611 6.767222881 -7.164672852 -2.192480087 -6.469439983 0.0 -178.884124756 -4.657235146 -32.336055756 39.081100464 0.0 -1.2379e-05 -4.647844791 -0.444824904 26.971855164 40.985401154 0.0 -1.2687e-05 0.499627978 -0.35365504 -41.72661972 11.754300117 0.0 0.0 0.231943458 -0.468153387 -21.194059372 -2.19250989 6.469439983 0.0 -179.060241699 9.442662239 -173.351470947 -39.081100464 -0.00228153 -0.040192802 -6.112723827 -0.037512843 15.129633904 -40.985401154 0.0 0.0 3.760138273 -4.577517986 -72.179695129 -11.754300117 0.0 0.0 0.180491596 -0.808691084 -21.303533554 
0.0 0.0 0.0 -0.0 0.0 -0.0 0.0 0.0 0.0 90.451835632 -4.016098499 1.217661738 15.735699654 0.0 0.0 137.092544556 82.844940186 -138.747772217 8.984550476 -0.406206995 0.0 0.389253587 6.749855042 0.604057014 16.377300262 0.0 0.0 -2.707520723 -0.337296724 1.677738547 6.456719875 0.0 0.0 2.734677076 -3.661350727 0.128976375 12.994199753 -0.242715999 4.980390072 -84.650993347 4.227824211 -91.950119019 5.348090172 0.0 0.0 -61.566684723 -7.90433979 21.995595932 24.32859993 1.8701e-05 0.0 -1.689679623 11.869995117 -17.397546768 22.291599274 0.0 0.0 19.16819191 6.972159386 -3.426755905 12.99450016 -0.242715999 -4.980390072 86.69026947 6.910653114 -100.491447449 -5.348130226 0.0 0.0 -55.118534088 -2.543209553 0.15142104 -24.328899384 0.000322201 0.0 -2.681036711 6.976755619 -29.932538986 -22.291500092 -0.000108084 0.0 21.525701523 6.59520483 -9.797562599 -2.192480087 -6.469439983 0.0 179.39012146 -3.804053307 -33.016391754 39.081100464 0.0 -1.2379e-05 -3.910065174 -0.352884889 20.910570145 40.985401154 0.0 -1.2687e-05 1.832520962 -0.534779727 -42.490772247 11.754300117 0.0 0.0 0.26472649 -0.582392156 -22.123327255 -2.19250989 6.469439983 0.0 -179.007247925 9.062034607 -172.801223755 -39.081100464 -0.00228153 -0.040192802 -4.123707294 -0.626052737 19.196723938 -40.985401154 0.0 0.0 5.243041039 -6.398072243 -69.721092224 -11.754300117 0.0 0.0 0.315617323 -0.878580213 -22.855419159 
